<mxfile host="app.diagrams.net" agent="Mozilla/5.0 (X11; Linux x86_64) AppleWebKit/537.36 (KHTML, like Gecko) Chrome/130.0.0.0 Safari/537.36" version="24.8.6">
  <diagram name="Страница — 1" id="1yfrVx2svfqCG2JPa6VC">
    <mxGraphModel dx="1368" dy="788" grid="1" gridSize="10" guides="1" tooltips="1" connect="1" arrows="1" fold="1" page="1" pageScale="1" pageWidth="827" pageHeight="1169" math="0" shadow="0">
      <root>
        <mxCell id="0" />
        <mxCell id="1" parent="0" />
        <mxCell id="00SY6R-vQr24uRy_SXSy-1" value="&lt;font style=&quot;font-size: 17px;&quot;&gt;&lt;b&gt;Система оказания услуг веб-хостинга в IT-компании&lt;/b&gt;&lt;/font&gt;" style="rounded=0;whiteSpace=wrap;html=1;strokeWidth=2;" parent="1" vertex="1">
          <mxGeometry x="281" y="81" width="239" height="120" as="geometry" />
        </mxCell>
        <mxCell id="00SY6R-vQr24uRy_SXSy-2" value="&lt;font style=&quot;font-size: 14px;&quot;&gt;Оформление услуги хостинга&lt;/font&gt;" style="rounded=0;whiteSpace=wrap;html=1;" parent="1" vertex="1">
          <mxGeometry x="260" y="281" width="110" height="80" as="geometry" />
        </mxCell>
        <mxCell id="00SY6R-vQr24uRy_SXSy-3" value="&lt;font style=&quot;font-size: 14px;&quot;&gt;Исполнение заказа&lt;/font&gt;" style="rounded=0;whiteSpace=wrap;html=1;" parent="1" vertex="1">
          <mxGeometry x="430" y="281" width="110" height="80" as="geometry" />
        </mxCell>
        <mxCell id="00SY6R-vQr24uRy_SXSy-4" value="&lt;span style=&quot;font-size: 14px;&quot;&gt;Исправление проблем&lt;/span&gt;" style="rounded=0;whiteSpace=wrap;html=1;" parent="1" vertex="1">
          <mxGeometry x="600" y="281" width="100" height="80" as="geometry" />
        </mxCell>
        <mxCell id="00SY6R-vQr24uRy_SXSy-7" value="" style="endArrow=none;html=1;rounded=0;entryX=0.5;entryY=1;entryDx=0;entryDy=0;" parent="1" target="00SY6R-vQr24uRy_SXSy-1" edge="1">
          <mxGeometry width="50" height="50" relative="1" as="geometry">
            <mxPoint x="401" y="240" as="sourcePoint" />
            <mxPoint x="280" y="420" as="targetPoint" />
          </mxGeometry>
        </mxCell>
        <mxCell id="00SY6R-vQr24uRy_SXSy-8" value="" style="endArrow=none;html=1;rounded=0;" parent="1" edge="1">
          <mxGeometry width="50" height="50" relative="1" as="geometry">
            <mxPoint x="140" y="240" as="sourcePoint" />
            <mxPoint x="830" y="240" as="targetPoint" />
          </mxGeometry>
        </mxCell>
        <mxCell id="00SY6R-vQr24uRy_SXSy-9" value="" style="endArrow=none;html=1;rounded=0;" parent="1" edge="1">
          <mxGeometry width="50" height="50" relative="1" as="geometry">
            <mxPoint x="313" y="281" as="sourcePoint" />
            <mxPoint x="313" y="240" as="targetPoint" />
          </mxGeometry>
        </mxCell>
        <mxCell id="00SY6R-vQr24uRy_SXSy-10" value="" style="endArrow=none;html=1;rounded=0;" parent="1" edge="1">
          <mxGeometry width="50" height="50" relative="1" as="geometry">
            <mxPoint x="461" y="282" as="sourcePoint" />
            <mxPoint x="461" y="241" as="targetPoint" />
          </mxGeometry>
        </mxCell>
        <mxCell id="00SY6R-vQr24uRy_SXSy-11" value="" style="endArrow=none;html=1;rounded=0;" parent="1" edge="1">
          <mxGeometry width="50" height="50" relative="1" as="geometry">
            <mxPoint x="649.5" y="281" as="sourcePoint" />
            <mxPoint x="649.5" y="240" as="targetPoint" />
          </mxGeometry>
        </mxCell>
        <mxCell id="00SY6R-vQr24uRy_SXSy-14" value="&lt;span style=&quot;font-size: 14px;&quot;&gt;Продвижение новых услуг&lt;/span&gt;" style="rounded=0;whiteSpace=wrap;html=1;" parent="1" vertex="1">
          <mxGeometry x="90" y="281" width="110" height="80" as="geometry" />
        </mxCell>
        <mxCell id="00SY6R-vQr24uRy_SXSy-15" value="" style="endArrow=none;html=1;rounded=0;" parent="1" edge="1">
          <mxGeometry width="50" height="50" relative="1" as="geometry">
            <mxPoint x="139" y="281" as="sourcePoint" />
            <mxPoint x="139" y="240" as="targetPoint" />
          </mxGeometry>
        </mxCell>
        <mxCell id="00SY6R-vQr24uRy_SXSy-16" value="&lt;span style=&quot;font-size: 14px;&quot;&gt;Анализ рынка&lt;/span&gt;" style="rounded=0;whiteSpace=wrap;html=1;" parent="1" vertex="1">
          <mxGeometry x="90" y="383" width="110" height="80" as="geometry" />
        </mxCell>
        <mxCell id="00SY6R-vQr24uRy_SXSy-17" value="" style="endArrow=none;html=1;rounded=0;" parent="1" edge="1">
          <mxGeometry width="50" height="50" relative="1" as="geometry">
            <mxPoint x="70" y="420" as="sourcePoint" />
            <mxPoint x="90" y="420" as="targetPoint" />
          </mxGeometry>
        </mxCell>
        <mxCell id="00SY6R-vQr24uRy_SXSy-18" value="&lt;span style=&quot;font-size: 14px;&quot;&gt;Формирование стратегии продвижения&lt;/span&gt;" style="rounded=0;whiteSpace=wrap;html=1;" parent="1" vertex="1">
          <mxGeometry x="90" y="586" width="110" height="80" as="geometry" />
        </mxCell>
        <mxCell id="00SY6R-vQr24uRy_SXSy-20" value="&lt;span style=&quot;font-size: 14px;&quot;&gt;Создание концепта услуги&lt;/span&gt;" style="rounded=0;whiteSpace=wrap;html=1;" parent="1" vertex="1">
          <mxGeometry x="90" y="484" width="110" height="80" as="geometry" />
        </mxCell>
        <mxCell id="00SY6R-vQr24uRy_SXSy-22" value="&lt;span style=&quot;font-size: 14px;&quot;&gt;Разработка услуги&lt;/span&gt;" style="rounded=0;whiteSpace=wrap;html=1;" parent="1" vertex="1">
          <mxGeometry x="90" y="687" width="110" height="80" as="geometry" />
        </mxCell>
        <mxCell id="00SY6R-vQr24uRy_SXSy-26" value="" style="endArrow=none;html=1;rounded=0;" parent="1" edge="1">
          <mxGeometry width="50" height="50" relative="1" as="geometry">
            <mxPoint x="70" y="520" as="sourcePoint" />
            <mxPoint x="90" y="520" as="targetPoint" />
          </mxGeometry>
        </mxCell>
        <mxCell id="00SY6R-vQr24uRy_SXSy-27" value="" style="endArrow=none;html=1;rounded=0;" parent="1" edge="1">
          <mxGeometry width="50" height="50" relative="1" as="geometry">
            <mxPoint x="70" y="625.76" as="sourcePoint" />
            <mxPoint x="90" y="625.76" as="targetPoint" />
          </mxGeometry>
        </mxCell>
        <mxCell id="00SY6R-vQr24uRy_SXSy-28" value="" style="endArrow=none;html=1;rounded=0;" parent="1" edge="1">
          <mxGeometry width="50" height="50" relative="1" as="geometry">
            <mxPoint x="70" y="727" as="sourcePoint" />
            <mxPoint x="90" y="727" as="targetPoint" />
          </mxGeometry>
        </mxCell>
        <mxCell id="00SY6R-vQr24uRy_SXSy-30" value="" style="endArrow=none;html=1;rounded=0;" parent="1" edge="1">
          <mxGeometry width="50" height="50" relative="1" as="geometry">
            <mxPoint x="70" y="730" as="sourcePoint" />
            <mxPoint x="70" y="370" as="targetPoint" />
          </mxGeometry>
        </mxCell>
        <mxCell id="00SY6R-vQr24uRy_SXSy-31" value="" style="endArrow=none;html=1;rounded=0;" parent="1" edge="1">
          <mxGeometry width="50" height="50" relative="1" as="geometry">
            <mxPoint x="70" y="370" as="sourcePoint" />
            <mxPoint x="140" y="370" as="targetPoint" />
          </mxGeometry>
        </mxCell>
        <mxCell id="00SY6R-vQr24uRy_SXSy-32" value="" style="endArrow=none;html=1;rounded=0;" parent="1" edge="1">
          <mxGeometry width="50" height="50" relative="1" as="geometry">
            <mxPoint x="140" y="370" as="sourcePoint" />
            <mxPoint x="140" y="361" as="targetPoint" />
          </mxGeometry>
        </mxCell>
        <mxCell id="00SY6R-vQr24uRy_SXSy-35" value="" style="endArrow=none;html=1;rounded=0;entryX=0.5;entryY=1;entryDx=0;entryDy=0;" parent="1" target="00SY6R-vQr24uRy_SXSy-38" edge="1">
          <mxGeometry width="50" height="50" relative="1" as="geometry">
            <mxPoint x="80" y="370" as="sourcePoint" />
            <mxPoint x="62.5" y="321" as="targetPoint" />
          </mxGeometry>
        </mxCell>
        <mxCell id="00SY6R-vQr24uRy_SXSy-37" value="&lt;h1 style=&quot;margin-top: 0px;&quot;&gt;Пояснения&lt;/h1&gt;&lt;p&gt;&lt;span style=&quot;text-wrap-mode: nowrap;&quot;&gt;[2] - Технологические этапы&lt;/span&gt;&lt;/p&gt;&lt;p style=&quot;&quot;&gt;&lt;span style=&quot;text-wrap-mode: nowrap;&quot;&gt;[1] - Жизненный цикл&lt;/span&gt;&lt;/p&gt;&lt;p style=&quot;&quot;&gt;&lt;span style=&quot;text-wrap-mode: nowrap;&quot;&gt;ПОиО -&amp;nbsp;&lt;/span&gt;&lt;span style=&quot;font-size: 13px; background-color: initial;&quot;&gt;ПО (программное обеспечение) и оборудование&lt;/span&gt;&lt;/p&gt;" style="text;html=1;whiteSpace=wrap;overflow=hidden;rounded=0;align=left;" parent="1" vertex="1">
          <mxGeometry x="610" y="40" width="230" height="160" as="geometry" />
        </mxCell>
        <mxCell id="00SY6R-vQr24uRy_SXSy-38" value="&lt;span style=&quot;color: rgb(0, 0, 0); font-family: Helvetica; font-size: 12px; font-style: normal; font-variant-ligatures: normal; font-variant-caps: normal; font-weight: 400; letter-spacing: normal; orphans: 2; text-align: center; text-indent: 0px; text-transform: none; widows: 2; word-spacing: 0px; -webkit-text-stroke-width: 0px; white-space: nowrap; background-color: rgb(251, 251, 251); text-decoration-thickness: initial; text-decoration-style: initial; text-decoration-color: initial; display: inline !important; float: none;&quot;&gt;[2]&lt;/span&gt;" style="text;whiteSpace=wrap;html=1;" parent="1" vertex="1">
          <mxGeometry x="50" y="281" width="20" height="30" as="geometry" />
        </mxCell>
        <mxCell id="00SY6R-vQr24uRy_SXSy-39" value="&lt;span style=&quot;font-size: 14px;&quot;&gt;Выбор тарифа&lt;/span&gt;" style="rounded=0;whiteSpace=wrap;html=1;" parent="1" vertex="1">
          <mxGeometry x="270" y="383" width="110" height="80" as="geometry" />
        </mxCell>
        <mxCell id="00SY6R-vQr24uRy_SXSy-40" value="" style="endArrow=none;html=1;rounded=0;" parent="1" edge="1">
          <mxGeometry width="50" height="50" relative="1" as="geometry">
            <mxPoint x="250" y="420" as="sourcePoint" />
            <mxPoint x="270" y="420" as="targetPoint" />
          </mxGeometry>
        </mxCell>
        <mxCell id="00SY6R-vQr24uRy_SXSy-41" value="&lt;span style=&quot;font-size: 14px;&quot;&gt;Оплата услуги&lt;/span&gt;" style="rounded=0;whiteSpace=wrap;html=1;" parent="1" vertex="1">
          <mxGeometry x="270" y="586" width="110" height="80" as="geometry" />
        </mxCell>
        <mxCell id="00SY6R-vQr24uRy_SXSy-42" value="&lt;font style=&quot;font-size: 12px;&quot;&gt;Оформление и подписание договора на оказание выбранной услуги&lt;/font&gt;" style="rounded=0;whiteSpace=wrap;html=1;" parent="1" vertex="1">
          <mxGeometry x="270" y="484" width="110" height="80" as="geometry" />
        </mxCell>
        <mxCell id="00SY6R-vQr24uRy_SXSy-43" value="" style="endArrow=none;html=1;rounded=0;" parent="1" edge="1">
          <mxGeometry width="50" height="50" relative="1" as="geometry">
            <mxPoint x="250" y="520" as="sourcePoint" />
            <mxPoint x="270" y="520" as="targetPoint" />
          </mxGeometry>
        </mxCell>
        <mxCell id="00SY6R-vQr24uRy_SXSy-44" value="" style="endArrow=none;html=1;rounded=0;" parent="1" edge="1">
          <mxGeometry width="50" height="50" relative="1" as="geometry">
            <mxPoint x="250" y="619.76" as="sourcePoint" />
            <mxPoint x="270" y="619.76" as="targetPoint" />
          </mxGeometry>
        </mxCell>
        <mxCell id="00SY6R-vQr24uRy_SXSy-45" value="" style="endArrow=none;html=1;rounded=0;" parent="1" edge="1">
          <mxGeometry width="50" height="50" relative="1" as="geometry">
            <mxPoint x="250" y="370" as="sourcePoint" />
            <mxPoint x="320" y="370" as="targetPoint" />
          </mxGeometry>
        </mxCell>
        <mxCell id="00SY6R-vQr24uRy_SXSy-46" value="" style="endArrow=none;html=1;rounded=0;" parent="1" edge="1">
          <mxGeometry width="50" height="50" relative="1" as="geometry">
            <mxPoint x="320" y="370" as="sourcePoint" />
            <mxPoint x="320" y="361" as="targetPoint" />
          </mxGeometry>
        </mxCell>
        <mxCell id="00SY6R-vQr24uRy_SXSy-47" value="" style="endArrow=none;html=1;rounded=0;" parent="1" edge="1">
          <mxGeometry width="50" height="50" relative="1" as="geometry">
            <mxPoint x="250" y="620" as="sourcePoint" />
            <mxPoint x="250" y="370" as="targetPoint" />
          </mxGeometry>
        </mxCell>
        <mxCell id="00SY6R-vQr24uRy_SXSy-50" value="" style="endArrow=none;html=1;rounded=0;entryX=0.5;entryY=1;entryDx=0;entryDy=0;" parent="1" target="00SY6R-vQr24uRy_SXSy-51" edge="1">
          <mxGeometry width="50" height="50" relative="1" as="geometry">
            <mxPoint x="250" y="380" as="sourcePoint" />
            <mxPoint x="242.5" y="351" as="targetPoint" />
          </mxGeometry>
        </mxCell>
        <mxCell id="00SY6R-vQr24uRy_SXSy-51" value="&lt;span style=&quot;color: rgb(0, 0, 0); font-family: Helvetica; font-size: 12px; font-style: normal; font-variant-ligatures: normal; font-variant-caps: normal; font-weight: 400; letter-spacing: normal; orphans: 2; text-align: center; text-indent: 0px; text-transform: none; widows: 2; word-spacing: 0px; -webkit-text-stroke-width: 0px; white-space: nowrap; background-color: rgb(251, 251, 251); text-decoration-thickness: initial; text-decoration-style: initial; text-decoration-color: initial; display: inline !important; float: none;&quot;&gt;[2]&lt;/span&gt;" style="text;whiteSpace=wrap;html=1;" parent="1" vertex="1">
          <mxGeometry x="230" y="311" width="20" height="30" as="geometry" />
        </mxCell>
        <mxCell id="00SY6R-vQr24uRy_SXSy-53" value="&lt;span style=&quot;font-size: 14px;&quot;&gt;Мониторинг входящих запросов&lt;/span&gt;" style="rounded=0;whiteSpace=wrap;html=1;" parent="1" vertex="1">
          <mxGeometry x="430" y="383" width="110" height="80" as="geometry" />
        </mxCell>
        <mxCell id="00SY6R-vQr24uRy_SXSy-54" value="" style="endArrow=none;html=1;rounded=0;" parent="1" edge="1">
          <mxGeometry width="50" height="50" relative="1" as="geometry">
            <mxPoint x="410" y="420" as="sourcePoint" />
            <mxPoint x="430" y="420" as="targetPoint" />
          </mxGeometry>
        </mxCell>
        <mxCell id="00SY6R-vQr24uRy_SXSy-55" value="&lt;span style=&quot;font-size: 13px;&quot;&gt;Формирование ответов&lt;/span&gt;" style="rounded=0;whiteSpace=wrap;html=1;" parent="1" vertex="1">
          <mxGeometry x="430" y="586" width="100" height="64" as="geometry" />
        </mxCell>
        <mxCell id="00SY6R-vQr24uRy_SXSy-56" value="&lt;font style=&quot;font-size: 14px;&quot;&gt;Мониторинг ошибок&lt;/font&gt;" style="rounded=0;whiteSpace=wrap;html=1;" parent="1" vertex="1">
          <mxGeometry x="430" y="484" width="110" height="80" as="geometry" />
        </mxCell>
        <mxCell id="00SY6R-vQr24uRy_SXSy-57" value="" style="endArrow=none;html=1;rounded=0;" parent="1" edge="1">
          <mxGeometry width="50" height="50" relative="1" as="geometry">
            <mxPoint x="410" y="520" as="sourcePoint" />
            <mxPoint x="430" y="520" as="targetPoint" />
          </mxGeometry>
        </mxCell>
        <mxCell id="00SY6R-vQr24uRy_SXSy-58" value="" style="endArrow=none;html=1;rounded=0;" parent="1" edge="1">
          <mxGeometry width="50" height="50" relative="1" as="geometry">
            <mxPoint x="410" y="619.76" as="sourcePoint" />
            <mxPoint x="430" y="619.76" as="targetPoint" />
          </mxGeometry>
        </mxCell>
        <mxCell id="00SY6R-vQr24uRy_SXSy-59" value="" style="endArrow=none;html=1;rounded=0;" parent="1" edge="1">
          <mxGeometry width="50" height="50" relative="1" as="geometry">
            <mxPoint x="410" y="370" as="sourcePoint" />
            <mxPoint x="480" y="370" as="targetPoint" />
          </mxGeometry>
        </mxCell>
        <mxCell id="00SY6R-vQr24uRy_SXSy-60" value="" style="endArrow=none;html=1;rounded=0;" parent="1" edge="1">
          <mxGeometry width="50" height="50" relative="1" as="geometry">
            <mxPoint x="480" y="370" as="sourcePoint" />
            <mxPoint x="480" y="361" as="targetPoint" />
          </mxGeometry>
        </mxCell>
        <mxCell id="00SY6R-vQr24uRy_SXSy-61" value="" style="endArrow=none;html=1;rounded=0;" parent="1" edge="1">
          <mxGeometry width="50" height="50" relative="1" as="geometry">
            <mxPoint x="410" y="620" as="sourcePoint" />
            <mxPoint x="410" y="370" as="targetPoint" />
          </mxGeometry>
        </mxCell>
        <mxCell id="00SY6R-vQr24uRy_SXSy-64" value="" style="endArrow=none;html=1;rounded=0;entryX=0.5;entryY=1;entryDx=0;entryDy=0;" parent="1" target="00SY6R-vQr24uRy_SXSy-65" edge="1">
          <mxGeometry width="50" height="50" relative="1" as="geometry">
            <mxPoint x="420" y="370" as="sourcePoint" />
            <mxPoint x="412.5" y="360" as="targetPoint" />
          </mxGeometry>
        </mxCell>
        <mxCell id="00SY6R-vQr24uRy_SXSy-65" value="&lt;span style=&quot;color: rgb(0, 0, 0); font-family: Helvetica; font-size: 12px; font-style: normal; font-variant-ligatures: normal; font-variant-caps: normal; font-weight: 400; letter-spacing: normal; orphans: 2; text-align: center; text-indent: 0px; text-transform: none; widows: 2; word-spacing: 0px; -webkit-text-stroke-width: 0px; white-space: nowrap; background-color: rgb(251, 251, 251); text-decoration-thickness: initial; text-decoration-style: initial; text-decoration-color: initial; display: inline !important; float: none;&quot;&gt;[2]&lt;/span&gt;" style="text;whiteSpace=wrap;html=1;" parent="1" vertex="1">
          <mxGeometry x="400" y="320" width="20" height="30" as="geometry" />
        </mxCell>
        <mxCell id="00SY6R-vQr24uRy_SXSy-66" value="&lt;span style=&quot;font-size: 14px;&quot;&gt;Получение информации о проблеме&lt;/span&gt;" style="rounded=0;whiteSpace=wrap;html=1;" parent="1" vertex="1">
          <mxGeometry x="600" y="383" width="110" height="80" as="geometry" />
        </mxCell>
        <mxCell id="00SY6R-vQr24uRy_SXSy-67" value="" style="endArrow=none;html=1;rounded=0;" parent="1" edge="1">
          <mxGeometry width="50" height="50" relative="1" as="geometry">
            <mxPoint x="580" y="420" as="sourcePoint" />
            <mxPoint x="600" y="420" as="targetPoint" />
          </mxGeometry>
        </mxCell>
        <mxCell id="00SY6R-vQr24uRy_SXSy-68" value="&lt;span style=&quot;font-size: 13px;&quot;&gt;Решение проблемы&lt;/span&gt;" style="rounded=0;whiteSpace=wrap;html=1;" parent="1" vertex="1">
          <mxGeometry x="600" y="586" width="110" height="80" as="geometry" />
        </mxCell>
        <mxCell id="00SY6R-vQr24uRy_SXSy-69" value="&lt;span style=&quot;font-size: 14px;&quot;&gt;Выбор подхода решения проблемы&lt;/span&gt;" style="rounded=0;whiteSpace=wrap;html=1;" parent="1" vertex="1">
          <mxGeometry x="600" y="484" width="110" height="80" as="geometry" />
        </mxCell>
        <mxCell id="00SY6R-vQr24uRy_SXSy-70" value="" style="endArrow=none;html=1;rounded=0;" parent="1" edge="1">
          <mxGeometry width="50" height="50" relative="1" as="geometry">
            <mxPoint x="580" y="520" as="sourcePoint" />
            <mxPoint x="600" y="520" as="targetPoint" />
          </mxGeometry>
        </mxCell>
        <mxCell id="00SY6R-vQr24uRy_SXSy-71" value="" style="endArrow=none;html=1;rounded=0;" parent="1" edge="1">
          <mxGeometry width="50" height="50" relative="1" as="geometry">
            <mxPoint x="580" y="619.76" as="sourcePoint" />
            <mxPoint x="600" y="619.76" as="targetPoint" />
          </mxGeometry>
        </mxCell>
        <mxCell id="00SY6R-vQr24uRy_SXSy-72" value="" style="endArrow=none;html=1;rounded=0;" parent="1" edge="1">
          <mxGeometry width="50" height="50" relative="1" as="geometry">
            <mxPoint x="580" y="370" as="sourcePoint" />
            <mxPoint x="650" y="370" as="targetPoint" />
          </mxGeometry>
        </mxCell>
        <mxCell id="00SY6R-vQr24uRy_SXSy-73" value="" style="endArrow=none;html=1;rounded=0;" parent="1" edge="1">
          <mxGeometry width="50" height="50" relative="1" as="geometry">
            <mxPoint x="650" y="370" as="sourcePoint" />
            <mxPoint x="650" y="361" as="targetPoint" />
          </mxGeometry>
        </mxCell>
        <mxCell id="00SY6R-vQr24uRy_SXSy-74" value="" style="endArrow=none;html=1;rounded=0;" parent="1" edge="1">
          <mxGeometry width="50" height="50" relative="1" as="geometry">
            <mxPoint x="580" y="620" as="sourcePoint" />
            <mxPoint x="580" y="370" as="targetPoint" />
          </mxGeometry>
        </mxCell>
        <mxCell id="00SY6R-vQr24uRy_SXSy-75" value="" style="endArrow=none;html=1;rounded=0;entryX=0.5;entryY=1;entryDx=0;entryDy=0;" parent="1" target="00SY6R-vQr24uRy_SXSy-76" edge="1">
          <mxGeometry width="50" height="50" relative="1" as="geometry">
            <mxPoint x="590" y="370" as="sourcePoint" />
            <mxPoint x="582.5" y="360" as="targetPoint" />
          </mxGeometry>
        </mxCell>
        <mxCell id="00SY6R-vQr24uRy_SXSy-76" value="&lt;span style=&quot;color: rgb(0, 0, 0); font-family: Helvetica; font-size: 12px; font-style: normal; font-variant-ligatures: normal; font-variant-caps: normal; font-weight: 400; letter-spacing: normal; orphans: 2; text-align: center; text-indent: 0px; text-transform: none; widows: 2; word-spacing: 0px; -webkit-text-stroke-width: 0px; white-space: nowrap; background-color: rgb(251, 251, 251); text-decoration-thickness: initial; text-decoration-style: initial; text-decoration-color: initial; display: inline !important; float: none;&quot;&gt;[2]&lt;/span&gt;" style="text;whiteSpace=wrap;html=1;" parent="1" vertex="1">
          <mxGeometry x="570" y="320" width="20" height="30" as="geometry" />
        </mxCell>
        <mxCell id="KM6Dg7DEPYsKIKmjiPWJ-12" value="" style="endArrow=none;html=1;rounded=0;entryX=0.5;entryY=1;entryDx=0;entryDy=0;" parent="1" target="KM6Dg7DEPYsKIKmjiPWJ-13" edge="1">
          <mxGeometry width="50" height="50" relative="1" as="geometry">
            <mxPoint x="280" y="220" as="sourcePoint" />
            <mxPoint x="232.5" y="190" as="targetPoint" />
          </mxGeometry>
        </mxCell>
        <mxCell id="KM6Dg7DEPYsKIKmjiPWJ-13" value="&lt;span style=&quot;color: rgb(0, 0, 0); font-family: Helvetica; font-size: 12px; font-style: normal; font-variant-ligatures: normal; font-variant-caps: normal; font-weight: 400; letter-spacing: normal; orphans: 2; text-align: center; text-indent: 0px; text-transform: none; widows: 2; word-spacing: 0px; -webkit-text-stroke-width: 0px; white-space: nowrap; background-color: rgb(251, 251, 251); text-decoration-thickness: initial; text-decoration-style: initial; text-decoration-color: initial; display: inline !important; float: none;&quot;&gt;[1&lt;/span&gt;&lt;span style=&quot;text-align: center; text-wrap-mode: nowrap;&quot;&gt;]&lt;/span&gt;" style="text;whiteSpace=wrap;html=1;" parent="1" vertex="1">
          <mxGeometry x="220" y="150" width="20" height="30" as="geometry" />
        </mxCell>
        <mxCell id="KM6Dg7DEPYsKIKmjiPWJ-14" value="" style="endArrow=none;html=1;rounded=0;" parent="1" edge="1">
          <mxGeometry width="50" height="50" relative="1" as="geometry">
            <mxPoint x="281" y="220" as="sourcePoint" />
            <mxPoint x="400" y="240" as="targetPoint" />
          </mxGeometry>
        </mxCell>
        <mxCell id="KnjPE83bcG29in_OjR1M-1" value="&lt;font style=&quot;font-size: 14px;&quot;&gt;Обновление&amp;nbsp;&lt;span style=&quot;text-align: left;&quot;&gt;программного обеспечения и оборудования&lt;/span&gt;&lt;/font&gt;" style="rounded=0;whiteSpace=wrap;html=1;" parent="1" vertex="1">
          <mxGeometry x="780" y="281" width="180" height="80" as="geometry" />
        </mxCell>
        <mxCell id="KnjPE83bcG29in_OjR1M-2" value="" style="endArrow=none;html=1;rounded=0;" parent="1" edge="1">
          <mxGeometry width="50" height="50" relative="1" as="geometry">
            <mxPoint x="829.5" y="281" as="sourcePoint" />
            <mxPoint x="829.5" y="240" as="targetPoint" />
          </mxGeometry>
        </mxCell>
        <mxCell id="KnjPE83bcG29in_OjR1M-3" value="&lt;span style=&quot;font-size: 14px;&quot;&gt;Составление закупочного листа на требуемое&amp;nbsp;&lt;/span&gt;&lt;span style=&quot;font-size: 14px;&quot;&gt;ПОиО&lt;/span&gt;" style="rounded=0;whiteSpace=wrap;html=1;" parent="1" vertex="1">
          <mxGeometry x="780" y="390" width="140" height="97" as="geometry" />
        </mxCell>
        <mxCell id="KnjPE83bcG29in_OjR1M-4" value="" style="endArrow=none;html=1;rounded=0;" parent="1" edge="1">
          <mxGeometry width="50" height="50" relative="1" as="geometry">
            <mxPoint x="760" y="427" as="sourcePoint" />
            <mxPoint x="780" y="427" as="targetPoint" />
          </mxGeometry>
        </mxCell>
        <mxCell id="KnjPE83bcG29in_OjR1M-5" value="&lt;span style=&quot;font-size: 13px;&quot;&gt;Установка нового&amp;nbsp;&lt;/span&gt;&lt;span style=&quot;font-size: 14px;&quot;&gt;ПОиО&lt;/span&gt;" style="rounded=0;whiteSpace=wrap;html=1;" parent="1" vertex="1">
          <mxGeometry x="780" y="607" width="110" height="80" as="geometry" />
        </mxCell>
        <mxCell id="KnjPE83bcG29in_OjR1M-6" value="&lt;span style=&quot;font-size: 14px;&quot;&gt;Закупка требуемого&amp;nbsp;&lt;/span&gt;&lt;span style=&quot;font-size: 14px;&quot;&gt;ПОиО&lt;/span&gt;" style="rounded=0;whiteSpace=wrap;html=1;" parent="1" vertex="1">
          <mxGeometry x="780" y="505" width="130" height="85" as="geometry" />
        </mxCell>
        <mxCell id="KnjPE83bcG29in_OjR1M-7" value="" style="endArrow=none;html=1;rounded=0;" parent="1" edge="1">
          <mxGeometry width="50" height="50" relative="1" as="geometry">
            <mxPoint x="760" y="541" as="sourcePoint" />
            <mxPoint x="780" y="541" as="targetPoint" />
          </mxGeometry>
        </mxCell>
        <mxCell id="KnjPE83bcG29in_OjR1M-8" value="" style="endArrow=none;html=1;rounded=0;" parent="1" edge="1">
          <mxGeometry width="50" height="50" relative="1" as="geometry">
            <mxPoint x="760" y="640.76" as="sourcePoint" />
            <mxPoint x="780" y="640.76" as="targetPoint" />
          </mxGeometry>
        </mxCell>
        <mxCell id="KnjPE83bcG29in_OjR1M-9" value="" style="endArrow=none;html=1;rounded=0;" parent="1" edge="1">
          <mxGeometry width="50" height="50" relative="1" as="geometry">
            <mxPoint x="760" y="370" as="sourcePoint" />
            <mxPoint x="830" y="370" as="targetPoint" />
          </mxGeometry>
        </mxCell>
        <mxCell id="KnjPE83bcG29in_OjR1M-10" value="" style="endArrow=none;html=1;rounded=0;" parent="1" edge="1">
          <mxGeometry width="50" height="50" relative="1" as="geometry">
            <mxPoint x="830" y="370" as="sourcePoint" />
            <mxPoint x="830" y="361" as="targetPoint" />
          </mxGeometry>
        </mxCell>
        <mxCell id="KnjPE83bcG29in_OjR1M-11" value="" style="endArrow=none;html=1;rounded=0;" parent="1" edge="1">
          <mxGeometry width="50" height="50" relative="1" as="geometry">
            <mxPoint x="760" y="640" as="sourcePoint" />
            <mxPoint x="760" y="370" as="targetPoint" />
          </mxGeometry>
        </mxCell>
        <mxCell id="KnjPE83bcG29in_OjR1M-12" value="" style="endArrow=none;html=1;rounded=0;entryX=0.5;entryY=1;entryDx=0;entryDy=0;" parent="1" target="KnjPE83bcG29in_OjR1M-13" edge="1">
          <mxGeometry width="50" height="50" relative="1" as="geometry">
            <mxPoint x="770" y="370" as="sourcePoint" />
            <mxPoint x="762.5" y="360" as="targetPoint" />
          </mxGeometry>
        </mxCell>
        <mxCell id="KnjPE83bcG29in_OjR1M-13" value="&lt;span style=&quot;color: rgb(0, 0, 0); font-family: Helvetica; font-size: 12px; font-style: normal; font-variant-ligatures: normal; font-variant-caps: normal; font-weight: 400; letter-spacing: normal; orphans: 2; text-align: center; text-indent: 0px; text-transform: none; widows: 2; word-spacing: 0px; -webkit-text-stroke-width: 0px; white-space: nowrap; background-color: rgb(251, 251, 251); text-decoration-thickness: initial; text-decoration-style: initial; text-decoration-color: initial; display: inline !important; float: none;&quot;&gt;[2]&lt;/span&gt;" style="text;whiteSpace=wrap;html=1;" parent="1" vertex="1">
          <mxGeometry x="750" y="320" width="20" height="30" as="geometry" />
        </mxCell>
      </root>
    </mxGraphModel>
  </diagram>
</mxfile>
